<svg width="143" height="132" viewBox="0 0 143 132" fill="none" xmlns="http://www.w3.org/2000/svg">
<path d="M27.8409 62.5469C30.7784 62.6719 34.4737 62.7344 38.9268 62.7344L47.9971 87.2969H48.1143L57.5596 62.7344H60.255C62.1925 62.7344 64.9268 62.6719 68.4581 62.5469C68.5206 62.7969 68.5518 62.9688 68.5518 63.0625C68.5518 63.1719 68.5206 63.3672 68.4581 63.6484C67.8956 63.6953 67.4425 63.7422 67.0987 63.7891C66.755 63.8359 66.294 63.9141 65.7159 64.0234C65.1534 64.1328 64.7003 64.2656 64.3565 64.4219C64.0128 64.5625 63.7081 64.7656 63.4425 65.0312C63.1768 65.2812 63.0362 65.5703 63.0206 65.8984C62.8643 69.5703 62.7862 73.9375 62.7862 79C62.7862 84.1406 62.8878 89.0703 63.0909 93.7891C63.1065 94.1953 63.2862 94.5469 63.63 94.8438C63.9737 95.125 64.4659 95.3438 65.1065 95.5C65.7628 95.6562 66.3096 95.7734 66.7471 95.8516C67.2003 95.9141 67.7862 95.9766 68.505 96.0391C68.5675 96.2891 68.5987 96.5 68.5987 96.6719C68.5987 96.7969 68.5675 96.9531 68.505 97.1406C65.8643 97.0469 63.1456 97 60.3487 97C57.5362 97 54.8175 97.0469 52.1925 97.1406C52.13 96.9531 52.0987 96.7969 52.0987 96.6719C52.0987 96.4062 52.13 96.1953 52.1925 96.0391C52.9112 95.9766 53.4893 95.9141 53.9268 95.8516C54.38 95.7734 54.9268 95.6562 55.5675 95.5C56.2237 95.3438 56.7237 95.125 57.0675 94.8438C57.4112 94.5469 57.5909 94.1953 57.6065 93.7891C57.7628 88.9141 57.8409 84.5625 57.8409 80.7344C57.8409 77.0625 57.7628 72.8828 57.6065 68.1953H57.419L46.7081 96.4141H46.4737L35.0596 67.6328H34.8018C34.6768 71.4297 34.6143 75.7969 34.6143 80.7344C34.6143 84.3594 34.6925 88.5938 34.8487 93.4375C34.88 94.8594 36.6065 95.7266 40.0284 96.0391C40.1065 96.3047 40.1456 96.5156 40.1456 96.6719C40.1456 96.8281 40.1065 96.9844 40.0284 97.1406C37.544 97.0469 35.3253 97 33.3721 97C32.1221 97 30.0284 97.0469 27.0909 97.1406C27.0128 96.9844 26.9737 96.8281 26.9737 96.6719C26.9737 96.4062 27.0128 96.1953 27.0909 96.0391C30.544 95.7109 32.2706 94.8438 32.2706 93.4375C32.4581 88.5625 32.5518 83.75 32.5518 79C32.5518 75.5781 32.505 71.9453 32.4112 68.1016C32.3956 67.4453 32.3565 66.8984 32.294 66.4609C32.2315 66.0078 32.1143 65.6172 31.9425 65.2891C31.7706 64.9609 31.5909 64.7031 31.4034 64.5156C31.2159 64.3281 30.9268 64.1641 30.5362 64.0234C30.1456 63.8672 29.7628 63.7578 29.3878 63.6953C29.0284 63.6172 28.5128 63.5312 27.8409 63.4375C27.7784 63.3125 27.7471 63.1719 27.7471 63.0156C27.7471 62.8281 27.7784 62.6719 27.8409 62.5469Z" fill="#EAE7B1"/>
<path d="M55.5831 62.5469C59.0831 62.6719 61.8018 62.7344 63.7393 62.7344C65.6768 62.7344 68.3956 62.6719 71.8956 62.5469C71.9581 62.7969 71.9893 62.9688 71.9893 63.0625C71.9893 63.2344 71.9581 63.4297 71.8956 63.6484C71.1768 63.7109 70.5909 63.7812 70.1378 63.8594C69.7003 63.9219 69.1534 64.0312 68.4971 64.1875C67.8565 64.3438 67.3643 64.5703 67.0206 64.8672C66.6768 65.1484 66.4971 65.4922 66.4815 65.8984C66.2784 70.5234 66.1768 74.7969 66.1768 78.7188H66.8565L80.1456 65.8984C80.3487 65.6016 80.4503 65.375 80.4503 65.2188C80.4503 64.9219 80.3643 64.6797 80.1925 64.4922C80.0362 64.2891 79.7393 64.1406 79.3018 64.0469C78.88 63.9375 78.4503 63.8594 78.0128 63.8125C77.5909 63.7656 76.9581 63.7109 76.1143 63.6484C76.0518 63.3672 76.0206 63.1719 76.0206 63.0625C76.0206 62.9688 76.0518 62.7969 76.1143 62.5469C79.6456 62.6719 81.9659 62.7344 83.0753 62.7344C83.8409 62.7344 85.9893 62.6719 89.5206 62.5469C89.5831 62.7969 89.6143 62.9688 89.6143 63.0625C89.6143 63.1719 89.5831 63.3672 89.5206 63.6484C88.8487 63.7109 88.3096 63.7734 87.9034 63.8359C87.5128 63.8984 87.005 64.0078 86.38 64.1641C85.7706 64.3047 85.1846 64.5234 84.6221 64.8203C84.0753 65.1016 83.544 65.4609 83.0284 65.8984L70.9346 77.4062L85.8175 92.5469C88.3175 94.7812 90.5128 95.9453 92.4034 96.0391C92.4659 96.2891 92.4971 96.5 92.4971 96.6719C92.4971 96.8594 92.4659 97.0312 92.4034 97.1875C90.1378 97.0625 87.6378 97 84.9034 97C82.4503 97 79.4893 97.0625 76.0206 97.1875C75.9581 97 75.9268 96.8125 75.9268 96.625C75.9268 96.4219 75.9581 96.2266 76.0206 96.0391C77.5362 95.9922 78.5362 95.8594 79.0206 95.6406C79.5206 95.4062 79.7706 95.0078 79.7706 94.4453C79.7706 94.2422 79.7159 94.0469 79.6065 93.8594C79.4971 93.6719 79.3018 93.4297 79.0206 93.1328C78.755 92.8203 78.5909 92.625 78.5284 92.5469L67.0909 80.6875L66.1768 80.7344C66.1768 84.0781 66.2628 88.4297 66.4346 93.7891C66.4503 94.1953 66.63 94.5469 66.9737 94.8438C67.3175 95.125 67.8096 95.3438 68.4503 95.5C69.1065 95.6562 69.6534 95.7734 70.0909 95.8516C70.544 95.9141 71.13 95.9766 71.8487 96.0391C71.9112 96.2266 71.9425 96.4375 71.9425 96.6719C71.9425 96.7969 71.9112 96.9531 71.8487 97.1406C69.1925 97.0469 66.4737 97 63.6925 97C60.88 97 58.1612 97.0469 55.5362 97.1406C55.4737 96.9531 55.4425 96.7969 55.4425 96.6719C55.4425 96.4062 55.4737 96.1953 55.5362 96.0391C56.005 95.9922 56.38 95.9531 56.6612 95.9219C56.9425 95.8906 57.3253 95.8359 57.8096 95.7578C58.3096 95.6797 58.7081 95.5938 59.005 95.5C59.3175 95.3906 59.6378 95.2578 59.9659 95.1016C60.294 94.9453 60.5362 94.7578 60.6925 94.5391C60.8643 94.3203 60.9503 94.0703 60.9503 93.7891C61.1378 88.8984 61.2315 83.9688 61.2315 79C61.2315 73.9375 61.1534 69.5703 60.9971 65.8984C60.9815 65.4922 60.8018 65.1484 60.4581 64.8672C60.1143 64.5703 59.6143 64.3438 58.9581 64.1875C58.3175 64.0312 57.7706 63.9219 57.3175 63.8594C56.88 63.7812 56.3018 63.7109 55.5831 63.6484C55.5206 63.3672 55.4893 63.1719 55.4893 63.0625C55.4893 62.9062 55.5206 62.7344 55.5831 62.5469Z" fill="#EAE7B1"/>
<circle cx="59" cy="81" r="47.5" stroke="#EAE7B1" stroke-width="7"/>
<line x1="110.5" y1="23" x2="110.5" y2="50" stroke="#EEFFE1" stroke-opacity="0.4" stroke-width="7"/>
<line x1="124" y1="37.0714" x2="97" y2="37.0714" stroke="#EEFFE1" stroke-opacity="0.4" stroke-width="7"/>
<path d="M135 0V17.5" stroke="#EEFFE1" stroke-opacity="0.4" stroke-width="7"/>
<line x1="143" y1="9.57143" x2="127" y2="9.57143" stroke="#EEFFE1" stroke-opacity="0.4" stroke-width="7"/>
<path d="M110 0V17.5" stroke="#EEFFE1" stroke-opacity="0.4" stroke-width="7"/>
<line x1="118" y1="8.57141" x2="102" y2="8.57141" stroke="#EEFFE1" stroke-opacity="0.4" stroke-width="7"/>
</svg>
